<svg version="1.1" id="Layer_1" xmlns="http://www.w3.org/2000/svg" xmlns:xlink="http://www.w3.org/1999/xlink" x="0px" y="0px"
	 width="100%" viewBox="0 0 3333 3333" enable-background="new 0 0 3333 3333" xml:space="preserve">
<path fill="#FFFFFF" opacity="1.000000" stroke="none" 
	d="
M1930.000000,3336.000000 
	C1286.666870,3336.000000 644.333740,3336.000000 2.000431,3336.000000 
	C2.000287,2224.667236 2.000287,1113.334351 2.000144,2.001176 
	C1113.332520,2.000784 2224.665039,2.000784 3335.998047,2.000392 
	C3335.998779,1113.332153 3335.998779,2224.664307 3335.999512,3335.998047 
	C2867.666748,3336.000000 2399.333252,3336.000000 1930.000000,3336.000000 
M579.688904,2107.000000 
	C579.688904,2362.655029 579.824463,2618.310547 579.540894,2873.965088 
	C579.498962,2911.778564 587.501099,2947.224365 605.613525,2980.270264 
	C628.720459,3022.428223 662.211121,3053.646729 705.656677,3074.421387 
	C738.223267,3089.993896 772.797363,3095.305908 808.351562,3095.312012 
	C1342.997925,3095.404053 1877.644409,3095.407471 2412.290771,3095.319824 
	C2458.913818,3095.312256 2505.535889,3094.375977 2552.159912,3094.170410 
	C2567.948730,3094.100586 2583.389648,3091.750977 2598.438477,3087.579590 
	C2654.756348,3071.967529 2698.686523,3039.435059 2729.321777,2989.525635 
	C2748.651611,2958.034180 2760.187988,2923.804688 2760.196045,2886.682373 
	C2760.351318,2171.709473 2760.323486,1456.736450 2760.185791,741.763550 
	C2760.183594,731.523376 2759.199463,721.099548 2757.145020,711.074646 
	C2746.839111,660.787476 2722.420654,618.560608 2683.067871,585.384338 
	C2644.290283,552.692810 2599.164307,534.700623 2548.657471,534.387573 
	C2408.668213,533.519958 2268.669922,534.083618 2128.675293,534.114319 
	C2126.125732,534.114868 2123.576172,534.521057 2120.888672,534.749695 
	C2119.750488,546.227173 2119.423096,557.221741 2117.468018,567.918762 
	C2108.809570,615.294250 2086.902588,655.482361 2050.677246,687.485046 
	C2012.176147,721.498169 1966.870239,739.029724 1915.739258,739.180176 
	C1752.080078,739.661682 1588.418823,739.399048 1424.758423,739.257141 
	C1415.162720,739.248779 1405.484985,738.321838 1395.987549,736.884460 
	C1349.346802,729.825378 1309.548218,709.346985 1276.937134,675.151794 
	C1245.350342,642.030640 1226.814819,602.766357 1221.711792,557.239258 
	C1220.874146,549.765869 1220.281006,542.265198 1219.509888,534.086853 
	C1215.770386,534.086853 1212.496948,534.086853 1209.223511,534.086853 
	C1070.562134,534.086853 931.900635,534.037415 793.239380,534.194275 
	C783.645020,534.205139 773.953003,535.142944 764.475464,536.687073 
	C712.676758,545.126831 668.942932,568.606201 634.178833,608.104675 
	C599.005554,648.068115 579.815247,694.638672 579.793640,748.051453 
	C579.610229,1200.367554 579.688904,1652.683838 579.688904,2107.000000 
M1982.865479,420.051788 
	C1961.336182,407.602051 1938.113037,401.905762 1913.273193,402.038269 
	C1878.957275,402.221375 1844.639771,402.084167 1810.322876,402.084167 
	C1807.085571,402.084167 1803.848267,402.084167 1799.693359,402.084167 
	C1799.693359,397.498901 1799.761841,393.911346 1799.681885,390.327087 
	C1799.251831,371.053131 1799.821289,351.688354 1798.128174,332.524414 
	C1793.776123,283.270569 1749.685791,243.498795 1700.447266,243.364609 
	C1680.790161,243.311035 1661.128662,243.123352 1641.477661,243.473007 
	C1633.890869,243.608002 1626.185303,244.410873 1618.777222,246.025879 
	C1575.624390,255.433472 1540.405518,298.500427 1541.606934,341.992798 
	C1542.085205,359.304596 1541.714233,376.640747 1541.653931,393.965546 
	C1541.645142,396.507782 1541.212280,399.048553 1540.929565,402.084198 
	C1536.615723,402.084198 1532.977417,402.084229 1529.339233,402.084229 
	C1495.022339,402.084229 1460.705322,402.017578 1426.388916,402.142059 
	C1419.766113,402.166077 1413.087891,402.521088 1406.533936,403.432831 
	C1364.290649,409.309326 1332.328369,431.107269 1310.181885,467.183563 
	C1295.268066,491.478088 1290.265991,518.401550 1291.712769,546.623962 
	C1293.745361,586.267761 1309.741333,619.043579 1340.276245,644.599548 
	C1366.506470,666.552551 1397.258667,675.331970 1430.860474,675.347900 
	C1584.120117,675.420471 1737.379761,675.408203 1890.639404,675.324402 
	C1902.588867,675.317871 1914.567017,674.916687 1926.481934,674.029358 
	C1967.937866,670.941956 2000.244873,651.428772 2024.457153,618.142029 
	C2045.500732,589.211548 2051.335449,556.277710 2047.776001,521.495667 
	C2043.280762,477.565704 2021.266602,444.301575 1982.865479,420.051788 
z"/>
<path fill="#666666" opacity="1.000000" stroke="none" 
	d="
M579.688843,2106.000000 
	C579.688904,1652.683838 579.610229,1200.367554 579.793640,748.051453 
	C579.815247,694.638672 599.005554,648.068115 634.178833,608.104675 
	C668.942932,568.606201 712.676758,545.126831 764.475464,536.687073 
	C773.953003,535.142944 783.645020,534.205139 793.239380,534.194275 
	C931.900635,534.037415 1070.562134,534.086853 1209.223511,534.086853 
	C1212.496948,534.086853 1215.770386,534.086853 1219.509888,534.086853 
	C1220.281006,542.265198 1220.874146,549.765869 1221.711792,557.239258 
	C1226.814819,602.766357 1245.350342,642.030640 1276.937134,675.151794 
	C1309.548218,709.346985 1349.346802,729.825378 1395.987549,736.884460 
	C1405.484985,738.321838 1415.162720,739.248779 1424.758423,739.257141 
	C1588.418823,739.399048 1752.080078,739.661682 1915.739258,739.180176 
	C1966.870239,739.029724 2012.176147,721.498169 2050.677246,687.485046 
	C2086.902588,655.482361 2108.809570,615.294250 2117.468018,567.918762 
	C2119.423096,557.221741 2119.750488,546.227173 2120.888672,534.749695 
	C2123.576172,534.521057 2126.125732,534.114868 2128.675293,534.114319 
	C2268.669922,534.083618 2408.668213,533.519958 2548.657471,534.387573 
	C2599.164307,534.700623 2644.290283,552.692810 2683.067871,585.384338 
	C2722.420654,618.560608 2746.839111,660.787476 2757.145020,711.074646 
	C2759.199463,721.099548 2760.183594,731.523376 2760.185791,741.763550 
	C2760.323486,1456.736450 2760.351318,2171.709473 2760.196045,2886.682373 
	C2760.187988,2923.804688 2748.651611,2958.034180 2729.321777,2989.525635 
	C2698.686523,3039.435059 2654.756348,3071.967529 2598.438477,3087.579590 
	C2583.389648,3091.750977 2567.948730,3094.100586 2552.159912,3094.170410 
	C2505.535889,3094.375977 2458.913818,3095.312256 2412.290771,3095.319824 
	C1877.644409,3095.407471 1342.997925,3095.404053 808.351562,3095.312012 
	C772.797363,3095.305908 738.223267,3089.993896 705.656677,3074.421387 
	C662.211121,3053.646729 628.720459,3022.428223 605.613525,2980.270264 
	C587.501099,2947.224365 579.498962,2911.778564 579.540894,2873.965088 
	C579.824463,2618.310547 579.688904,2362.655029 579.688843,2106.000000 
M826.308838,1547.000000 
	C826.308838,1966.127319 826.308838,2385.254639 826.308838,2804.857422 
	C1389.553101,2804.857422 1951.342529,2804.857422 2513.721680,2804.857422 
	C2513.721680,2231.952637 2513.721680,1659.552002 2513.721680,1086.688232 
	C1951.310425,1086.688232 1389.262817,1086.688232 826.309021,1086.688232 
	C826.309021,1239.857422 826.309021,1392.428711 826.308838,1547.000000 
z"/>
<path fill="#676767" opacity="1.000000" stroke="none" 
	d="
M1983.475342,420.447693 
	C2021.266602,444.301575 2043.280762,477.565704 2047.776001,521.495667 
	C2051.335449,556.277710 2045.500732,589.211548 2024.457153,618.142029 
	C2000.244873,651.428772 1967.937866,670.941956 1926.481934,674.029358 
	C1914.567017,674.916687 1902.588867,675.317871 1890.639404,675.324402 
	C1737.379761,675.408203 1584.120117,675.420471 1430.860474,675.347900 
	C1397.258667,675.331970 1366.506470,666.552551 1340.276245,644.599548 
	C1309.741333,619.043579 1293.745361,586.267761 1291.712769,546.623962 
	C1290.265991,518.401550 1295.268066,491.478088 1310.181885,467.183563 
	C1332.328369,431.107269 1364.290649,409.309326 1406.533936,403.432831 
	C1413.087891,402.521088 1419.766113,402.166077 1426.388916,402.142059 
	C1460.705322,402.017578 1495.022339,402.084229 1529.339233,402.084229 
	C1532.977417,402.084229 1536.615723,402.084198 1540.929565,402.084198 
	C1541.212280,399.048553 1541.645142,396.507782 1541.653931,393.965546 
	C1541.714233,376.640747 1542.085205,359.304596 1541.606934,341.992798 
	C1540.405518,298.500427 1575.624390,255.433472 1618.777222,246.025879 
	C1626.185303,244.410873 1633.890869,243.608002 1641.477661,243.473007 
	C1661.128662,243.123352 1680.790161,243.311035 1700.447266,243.364609 
	C1749.685791,243.498795 1793.776123,283.270569 1798.128174,332.524414 
	C1799.821289,351.688354 1799.251831,371.053131 1799.681885,390.327087 
	C1799.761841,393.911346 1799.693359,397.498901 1799.693359,402.084167 
	C1803.848267,402.084167 1807.085571,402.084167 1810.322876,402.084167 
	C1844.639771,402.084167 1878.957275,402.221375 1913.273193,402.038269 
	C1938.113037,401.905762 1961.336182,407.602051 1983.475342,420.447693 
M1677.764282,338.194305 
	C1652.130859,336.222992 1633.440308,349.339630 1629.293823,372.338074 
	C1628.903076,374.504944 1628.994263,376.865509 1629.373047,379.047333 
	C1632.195190,395.304474 1642.007202,405.864899 1657.077515,411.528290 
	C1672.336548,417.262573 1686.408691,413.342499 1697.868774,402.891876 
	C1711.889038,390.106537 1716.775146,373.482269 1704.332153,355.699158 
	C1698.039062,346.705139 1689.405640,341.805634 1677.764282,338.194305 
z"/>
<path fill="#FFFFFF" opacity="1.000000" stroke="none" 
	d="
M826.308960,1546.000000 
	C826.309021,1392.428711 826.309021,1239.857422 826.309021,1086.688232 
	C1389.262817,1086.688232 1951.310425,1086.688232 2513.721680,1086.688232 
	C2513.721680,1659.552002 2513.721680,2231.952637 2513.721680,2804.857422 
	C1951.342529,2804.857422 1389.553101,2804.857422 826.308838,2804.857422 
	C826.308838,2385.254639 826.308838,1966.127319 826.308960,1546.000000 
M1543.000000,1435.384521 
	C1798.330200,1435.384644 2053.660400,1435.279907 2308.990723,1435.505493 
	C2344.427246,1435.536743 2370.558838,1404.562988 2370.721680,1374.019165 
	C2370.887695,1342.836182 2344.815430,1311.891968 2308.718018,1311.923462 
	C1996.055542,1312.196777 1683.392456,1312.197876 1370.729858,1311.906982 
	C1338.082275,1311.876587 1302.929321,1342.620728 1311.269653,1386.124756 
	C1316.739990,1414.657959 1343.581177,1435.903198 1373.004150,1435.568970 
	C1428.996216,1434.932861 1485.000732,1435.384277 1543.000000,1435.384521 
M1346.963745,1720.366455 
	C1356.828613,1725.046265 1367.347168,1726.099976 1378.087646,1726.099487 
	C1686.338257,1726.086670 1994.588989,1726.092407 2302.839600,1726.058105 
	C2307.489990,1726.057495 2312.183594,1725.908081 2316.783936,1725.288452 
	C2345.953613,1721.358887 2373.569580,1696.379272 2370.246582,1657.356812 
	C2367.666504,1627.056519 2341.242920,1601.994873 2308.899658,1602.008423 
	C1996.316895,1602.140137 1683.733887,1602.186646 1371.151367,1601.943604 
	C1337.448120,1601.917358 1303.125488,1633.249756 1311.260010,1675.873901 
	C1315.140503,1696.206787 1327.321411,1710.514893 1346.963745,1720.366455 
M1913.000000,2016.089111 
	C2042.997070,2016.089233 2172.994141,2016.089600 2302.991211,2016.089233 
	C2305.657715,2016.089233 2308.329590,2016.189819 2310.990234,2016.061646 
	C2354.198730,2013.979126 2382.002197,1971.116455 2366.181885,1930.889893 
	C2357.053711,1907.679688 2334.202393,1892.020630 2307.602051,1892.028442 
	C1996.275635,1892.120239 1684.949219,1892.077759 1373.622803,1892.162720 
	C1368.019531,1892.164185 1362.226318,1892.586548 1356.846191,1894.025513 
	C1333.328491,1900.316040 1317.691528,1915.306152 1312.057861,1938.996216 
	C1306.406982,1962.758667 1312.377441,1983.755005 1331.003662,2000.414185 
	C1343.527954,2011.615723 1358.357300,2016.141479 1375.011963,2016.134644 
	C1553.674683,2016.061523 1732.337280,2016.089111 1913.000000,2016.089111 
M1959.000000,2182.087158 
	C1764.667480,2182.087158 1570.334839,2182.076172 1376.002319,2182.145020 
	C1370.721191,2182.146973 1365.363037,2182.586914 1360.172119,2183.538574 
	C1328.107788,2189.417725 1306.945557,2217.844727 1310.463379,2251.473145 
	C1313.935059,2284.660645 1342.390869,2306.134033 1371.600342,2306.128174 
	C1684.265503,2306.064941 1996.930542,2306.127930 2309.595703,2306.008789 
	C2332.753174,2306.000000 2350.683838,2295.284180 2362.157715,2275.337402 
	C2374.255371,2254.305664 2373.967285,2232.485596 2361.317871,2211.789551 
	C2348.868896,2191.420898 2329.838623,2182.056885 2305.998291,2182.066406 
	C2190.998779,2182.112549 2075.999512,2182.087158 1959.000000,2182.087158 
M1977.000000,2472.087158 
	C1778.076172,2472.087158 1579.152222,2472.077148 1380.228394,2472.138916 
	C1374.605835,2472.140625 1368.941406,2472.599121 1363.368164,2473.366211 
	C1329.513184,2478.025635 1307.504761,2505.583984 1310.502930,2541.390625 
	C1313.286987,2574.641357 1342.769653,2596.230957 1371.248047,2596.212891 
	C1684.127930,2596.015137 1997.007935,2596.128418 2309.887939,2596.010742 
	C2333.908203,2596.001709 2352.066895,2584.829346 2363.192871,2563.554932 
	C2374.635986,2541.673828 2373.500488,2519.690186 2359.691650,2499.291748 
	C2346.523926,2479.840088 2326.973145,2472.058838 2303.875488,2472.068115 
	C2195.583740,2472.110840 2087.291748,2472.087158 1977.000000,2472.087158 
M1005.948364,1375.051758 
	C994.163025,1363.269043 982.403870,1351.459961 970.582031,1339.713867 
	C964.160767,1333.333862 956.631531,1329.512573 947.309631,1330.800659 
	C937.159851,1332.202881 930.051086,1337.787476 926.933472,1347.550049 
	C923.722229,1357.606201 926.137756,1366.472290 933.734863,1374.044678 
	C967.728394,1407.927856 1001.629883,1441.903198 1035.598999,1475.810913 
	C1036.936523,1477.146118 1038.624023,1478.130615 1040.309448,1479.399536 
	C1042.204224,1477.723999 1043.755249,1476.492798 1045.146606,1475.101807 
	C1120.576172,1399.693970 1196.002686,1324.282959 1271.365234,1248.808350 
	C1273.913208,1246.256592 1276.458130,1243.338745 1277.894409,1240.099365 
	C1286.180786,1221.409058 1274.802124,1203.497192 1255.402466,1203.643677 
	C1247.142822,1203.706055 1241.127197,1207.861572 1235.479370,1213.524780 
	C1173.108276,1276.065796 1110.624146,1338.493896 1048.156128,1400.938110 
	C1045.621582,1403.471924 1042.943481,1405.862183 1039.780151,1408.838867 
	C1028.547363,1397.621338 1017.747864,1386.836548 1005.948364,1375.051758 
M1214.054199,1525.054199 
	C1156.129639,1582.978760 1098.205200,1640.903442 1039.644409,1699.464233 
	C1036.453247,1696.359497 1033.866089,1693.899902 1031.341553,1691.377441 
	C1010.124023,1670.177246 988.971191,1648.911987 967.678711,1627.787476 
	C960.532410,1620.697632 948.863159,1618.852539 939.908020,1622.915527 
	C930.859985,1627.020630 925.152222,1636.878784 925.685730,1647.307251 
	C926.068665,1654.793579 929.945435,1660.307007 935.070557,1665.411987 
	C968.363586,1698.572998 1001.555420,1731.835815 1034.796753,1765.048706 
	C1036.385010,1766.635376 1038.129028,1768.066040 1040.064941,1769.807251 
	C1042.433105,1767.591553 1044.398560,1765.856812 1046.248901,1764.006836 
	C1120.960205,1689.313599 1195.661133,1614.609985 1270.362305,1539.906616 
	C1271.776001,1538.492676 1273.297485,1537.164185 1274.559448,1535.624390 
	C1281.046997,1527.709351 1282.211792,1518.618652 1278.911011,1509.317505 
	C1273.141357,1493.059937 1251.684204,1488.554565 1238.434692,1500.781006 
	C1230.359253,1508.233276 1222.829346,1516.276489 1214.054199,1525.054199 
M1007.920532,2319.080322 
	C1018.209778,2329.453613 1028.499023,2339.826660 1039.213135,2350.628174 
	C1042.431519,2347.567383 1045.100952,2345.135742 1047.652222,2342.585693 
	C1090.315674,2299.945312 1132.964478,2257.290527 1175.616211,2214.638428 
	C1208.135132,2182.119141 1240.713013,2149.658691 1273.144775,2117.052490 
	C1287.206055,2102.915527 1281.349731,2080.345459 1262.333008,2074.969238 
	C1251.878052,2072.013428 1243.802856,2076.122559 1236.427734,2083.522217 
	C1178.556274,2141.588135 1120.571167,2199.540771 1062.538940,2257.446045 
	C1055.107666,2264.861328 1047.203735,2271.802734 1038.074219,2280.309570 
	C1035.449951,2276.824707 1033.716553,2273.876465 1031.382446,2271.524414 
	C1011.664001,2251.654785 991.851318,2231.878662 972.020264,2212.121582 
	C969.674438,2209.784424 967.234802,2207.456787 964.517578,2205.593018 
	C955.445984,2199.371094 944.395569,2199.619873 935.597046,2205.983643 
	C927.365234,2211.937500 923.261963,2222.579102 926.703918,2232.567139 
	C928.464722,2237.677002 931.817688,2242.678467 935.634399,2246.567383 
	C959.209106,2270.589111 983.120911,2294.279541 1007.920532,2319.080322 
M958.920959,1980.079468 
	C985.663513,2006.820312 1012.406006,2033.561279 1039.350708,2060.504150 
	C1041.656006,2058.379883 1043.153442,2057.095215 1044.544800,2055.704102 
	C1120.138794,1980.124878 1195.723999,1904.536621 1271.308594,1828.947876 
	C1272.485840,1827.770508 1273.739502,1826.653564 1274.798096,1825.376343 
	C1282.725464,1815.810669 1282.438965,1800.133789 1274.219116,1791.443970 
	C1266.051514,1782.809082 1251.587280,1781.491577 1241.298096,1788.693481 
	C1238.328735,1790.771973 1235.727539,1793.424683 1233.146973,1796.003418 
	C1171.195068,1857.909912 1109.271729,1919.845093 1047.327271,1981.759155 
	C1044.837280,1984.248169 1042.190552,1986.580322 1038.083008,1990.418701 
	C1035.474121,1986.906128 1033.771484,1983.932251 1031.440063,1981.581909 
	C1011.740845,1961.722412 991.928284,1941.975342 972.144104,1922.200073 
	C970.260376,1920.317017 968.473267,1918.304565 966.408264,1916.641479 
	C957.735535,1909.657349 945.898254,1909.121826 936.583130,1915.156494 
	C928.058228,1920.679199 923.372986,1931.155762 926.457947,1941.238770 
	C928.131531,1946.708618 931.624390,1952.000610 935.458252,1956.348511 
	C942.492126,1964.325439 950.385681,1971.544434 958.920959,1980.079468 
M1215.073608,2466.052734 
	C1217.743286,2463.089600 1220.292480,2460.006836 1223.102295,2457.183105 
	C1240.024292,2440.178955 1257.151123,2423.375732 1273.921021,2406.223633 
	C1287.020508,2392.825684 1280.895752,2370.621338 1262.946289,2365.411865 
	C1252.087402,2362.260010 1243.782837,2366.292969 1236.126343,2373.974365 
	C1173.557983,2436.745117 1110.846436,2499.373535 1048.166260,2562.032715 
	C1045.626953,2564.571045 1042.967407,2566.989746 1040.017334,2569.793945 
	C1037.236694,2567.175537 1034.796509,2564.990967 1032.482178,2562.680176 
	C1012.440125,2542.670166 992.425476,2522.632812 972.387207,2502.618896 
	C970.268433,2500.502686 968.249939,2498.209229 965.842407,2496.472656 
	C957.582825,2490.515625 948.637085,2489.770752 939.408386,2493.935303 
	C930.220581,2498.081787 926.416931,2505.837646 925.699524,2515.453125 
	C925.046936,2524.200928 929.338013,2530.592773 935.262329,2536.489502 
	C968.323608,2569.395996 1001.260132,2602.427734 1034.273682,2635.382324 
	C1036.072632,2637.178223 1038.179199,2638.666016 1040.520020,2640.610840 
	C1098.678467,2582.457520 1156.380127,2524.760986 1215.073608,2466.052734 
z"/>
<path fill="#FDFDFD" opacity="1.000000" stroke="none" 
	d="
M1678.591187,338.361420 
	C1689.405640,341.805634 1698.039062,346.705139 1704.332153,355.699158 
	C1716.775146,373.482269 1711.889038,390.106537 1697.868774,402.891876 
	C1686.408691,413.342499 1672.336548,417.262573 1657.077515,411.528290 
	C1642.007202,405.864899 1632.195190,395.304474 1629.373047,379.047333 
	C1628.994263,376.865509 1628.903076,374.504944 1629.293823,372.338074 
	C1633.440308,349.339630 1652.130859,336.222992 1678.591187,338.361420 
z"/>
<path fill="#676767" opacity="1.000000" stroke="none" 
	d="
M1542.000000,1435.384277 
	C1485.000732,1435.384277 1428.996216,1434.932861 1373.004150,1435.568970 
	C1343.581177,1435.903198 1316.739990,1414.657959 1311.269653,1386.124756 
	C1302.929321,1342.620728 1338.082275,1311.876587 1370.729858,1311.906982 
	C1683.392456,1312.197876 1996.055542,1312.196777 2308.718018,1311.923462 
	C2344.815430,1311.891968 2370.887695,1342.836182 2370.721680,1374.019165 
	C2370.558838,1404.562988 2344.427246,1435.536743 2308.990723,1435.505493 
	C2053.660400,1435.279907 1798.330200,1435.384644 1542.000000,1435.384277 
z"/>
<path fill="#676666" opacity="1.000000" stroke="none" 
	d="
M1346.221436,1720.173584 
	C1327.321411,1710.514893 1315.140503,1696.206787 1311.260010,1675.873901 
	C1303.125488,1633.249756 1337.448120,1601.917358 1371.151367,1601.943604 
	C1683.733887,1602.186646 1996.316895,1602.140137 2308.899658,1602.008423 
	C2341.242920,1601.994873 2367.666504,1627.056519 2370.246582,1657.356812 
	C2373.569580,1696.379272 2345.953613,1721.358887 2316.783936,1725.288452 
	C2312.183594,1725.908081 2307.489990,1726.057495 2302.839600,1726.058105 
	C1994.588989,1726.092407 1686.338257,1726.086670 1378.087646,1726.099487 
	C1367.347168,1726.099976 1356.828613,1725.046265 1346.221436,1720.173584 
z"/>
<path fill="#676666" opacity="1.000000" stroke="none" 
	d="
M1912.000000,2016.089111 
	C1732.337280,2016.089111 1553.674683,2016.061523 1375.011963,2016.134644 
	C1358.357300,2016.141479 1343.527954,2011.615723 1331.003662,2000.414185 
	C1312.377441,1983.755005 1306.406982,1962.758667 1312.057861,1938.996216 
	C1317.691528,1915.306152 1333.328491,1900.316040 1356.846191,1894.025513 
	C1362.226318,1892.586548 1368.019531,1892.164185 1373.622803,1892.162720 
	C1684.949219,1892.077759 1996.275635,1892.120239 2307.602051,1892.028442 
	C2334.202393,1892.020630 2357.053711,1907.679688 2366.181885,1930.889893 
	C2382.002197,1971.116455 2354.198730,2013.979126 2310.990234,2016.061646 
	C2308.329590,2016.189819 2305.657715,2016.089233 2302.991211,2016.089233 
	C2172.994141,2016.089600 2042.997070,2016.089233 1912.000000,2016.089111 
z"/>
<path fill="#676666" opacity="1.000000" stroke="none" 
	d="
M1960.000000,2182.087158 
	C2075.999512,2182.087158 2190.998779,2182.112549 2305.998291,2182.066406 
	C2329.838623,2182.056885 2348.868896,2191.420898 2361.317871,2211.789551 
	C2373.967285,2232.485596 2374.255371,2254.305664 2362.157715,2275.337402 
	C2350.683838,2295.284180 2332.753174,2306.000000 2309.595703,2306.008789 
	C1996.930542,2306.127930 1684.265503,2306.064941 1371.600342,2306.128174 
	C1342.390869,2306.134033 1313.935059,2284.660645 1310.463379,2251.473145 
	C1306.945557,2217.844727 1328.107788,2189.417725 1360.172119,2183.538574 
	C1365.363037,2182.586914 1370.721191,2182.146973 1376.002319,2182.145020 
	C1570.334839,2182.076172 1764.667480,2182.087158 1960.000000,2182.087158 
z"/>
<path fill="#676666" opacity="1.000000" stroke="none" 
	d="
M1978.000000,2472.087158 
	C2087.291748,2472.087158 2195.583740,2472.110840 2303.875488,2472.068115 
	C2326.973145,2472.058838 2346.523926,2479.840088 2359.691650,2499.291748 
	C2373.500488,2519.690186 2374.635986,2541.673828 2363.192871,2563.554932 
	C2352.066895,2584.829346 2333.908203,2596.001709 2309.887939,2596.010742 
	C1997.007935,2596.128418 1684.127930,2596.015137 1371.248047,2596.212891 
	C1342.769653,2596.230957 1313.286987,2574.641357 1310.502930,2541.390625 
	C1307.504761,2505.583984 1329.513184,2478.025635 1363.368164,2473.366211 
	C1368.941406,2472.599121 1374.605835,2472.140625 1380.228394,2472.138916 
	C1579.152222,2472.077148 1778.076172,2472.087158 1978.000000,2472.087158 
z"/>
<path fill="#686969" opacity="1.000000" stroke="none" 
	d="
M1006.448364,1375.551758 
	C1017.747864,1386.836548 1028.547363,1397.621338 1039.780151,1408.838867 
	C1042.943481,1405.862183 1045.621582,1403.471924 1048.156128,1400.938110 
	C1110.624146,1338.493896 1173.108276,1276.065796 1235.479370,1213.524780 
	C1241.127197,1207.861572 1247.142822,1203.706055 1255.402466,1203.643677 
	C1274.802124,1203.497192 1286.180786,1221.409058 1277.894409,1240.099365 
	C1276.458130,1243.338745 1273.913208,1246.256592 1271.365234,1248.808350 
	C1196.002686,1324.282959 1120.576172,1399.693970 1045.146606,1475.101807 
	C1043.755249,1476.492798 1042.204224,1477.723999 1040.309448,1479.399536 
	C1038.624023,1478.130615 1036.936523,1477.146118 1035.598999,1475.810913 
	C1001.629883,1441.903198 967.728394,1407.927856 933.734863,1374.044678 
	C926.137756,1366.472290 923.722229,1357.606201 926.933472,1347.550049 
	C930.051086,1337.787476 937.159851,1332.202881 947.309631,1330.800659 
	C956.631531,1329.512573 964.160767,1333.333862 970.582031,1339.713867 
	C982.403870,1351.459961 994.163025,1363.269043 1006.448364,1375.551758 
z"/>
<path fill="#686969" opacity="1.000000" stroke="none" 
	d="
M1214.554199,1524.554199 
	C1222.829346,1516.276489 1230.359253,1508.233276 1238.434692,1500.781006 
	C1251.684204,1488.554565 1273.141357,1493.059937 1278.911011,1509.317505 
	C1282.211792,1518.618652 1281.046997,1527.709351 1274.559448,1535.624390 
	C1273.297485,1537.164185 1271.776001,1538.492676 1270.362305,1539.906616 
	C1195.661133,1614.609985 1120.960205,1689.313599 1046.248901,1764.006836 
	C1044.398560,1765.856812 1042.433105,1767.591553 1040.064941,1769.807251 
	C1038.129028,1768.066040 1036.385010,1766.635376 1034.796753,1765.048706 
	C1001.555420,1731.835815 968.363586,1698.572998 935.070557,1665.411987 
	C929.945435,1660.307007 926.068665,1654.793579 925.685730,1647.307251 
	C925.152222,1636.878784 930.859985,1627.020630 939.908020,1622.915527 
	C948.863159,1618.852539 960.532410,1620.697632 967.678711,1627.787476 
	C988.971191,1648.911987 1010.124023,1670.177246 1031.341553,1691.377441 
	C1033.866089,1693.899902 1036.453247,1696.359497 1039.644409,1699.464233 
	C1098.205200,1640.903442 1156.129639,1582.978760 1214.554199,1524.554199 
z"/>
<path fill="#686868" opacity="1.000000" stroke="none" 
	d="
M1007.420532,2318.580322 
	C983.120911,2294.279541 959.209106,2270.589111 935.634399,2246.567383 
	C931.817688,2242.678467 928.464722,2237.677002 926.703918,2232.567139 
	C923.261963,2222.579102 927.365234,2211.937500 935.597046,2205.983643 
	C944.395569,2199.619873 955.445984,2199.371094 964.517578,2205.593018 
	C967.234802,2207.456787 969.674438,2209.784424 972.020264,2212.121582 
	C991.851318,2231.878662 1011.664001,2251.654785 1031.382446,2271.524414 
	C1033.716553,2273.876465 1035.449951,2276.824707 1038.074219,2280.309570 
	C1047.203735,2271.802734 1055.107666,2264.861328 1062.538940,2257.446045 
	C1120.571167,2199.540771 1178.556274,2141.588135 1236.427734,2083.522217 
	C1243.802856,2076.122559 1251.878052,2072.013428 1262.333008,2074.969238 
	C1281.349731,2080.345459 1287.206055,2102.915527 1273.144775,2117.052490 
	C1240.713013,2149.658691 1208.135132,2182.119141 1175.616211,2214.638428 
	C1132.964478,2257.290527 1090.315674,2299.945312 1047.652222,2342.585693 
	C1045.100952,2345.135742 1042.431519,2347.567383 1039.213135,2350.628174 
	C1028.499023,2339.826660 1018.209778,2329.453613 1007.420532,2318.580322 
z"/>
<path fill="#686868" opacity="1.000000" stroke="none" 
	d="
M958.420898,1979.579468 
	C950.385681,1971.544434 942.492126,1964.325439 935.458252,1956.348511 
	C931.624390,1952.000610 928.131531,1946.708618 926.457947,1941.238770 
	C923.372986,1931.155762 928.058228,1920.679199 936.583130,1915.156494 
	C945.898254,1909.121826 957.735535,1909.657349 966.408264,1916.641479 
	C968.473267,1918.304565 970.260376,1920.317017 972.144104,1922.200073 
	C991.928284,1941.975342 1011.740845,1961.722412 1031.440063,1981.581909 
	C1033.771484,1983.932251 1035.474121,1986.906128 1038.083008,1990.418701 
	C1042.190552,1986.580322 1044.837280,1984.248169 1047.327271,1981.759155 
	C1109.271729,1919.845093 1171.195068,1857.909912 1233.146973,1796.003418 
	C1235.727539,1793.424683 1238.328735,1790.771973 1241.298096,1788.693481 
	C1251.587280,1781.491577 1266.051514,1782.809082 1274.219116,1791.443970 
	C1282.438965,1800.133789 1282.725464,1815.810669 1274.798096,1825.376343 
	C1273.739502,1826.653564 1272.485840,1827.770508 1271.308594,1828.947876 
	C1195.723999,1904.536621 1120.138794,1980.124878 1044.544800,2055.704102 
	C1043.153442,2057.095215 1041.656006,2058.379883 1039.350708,2060.504150 
	C1012.406006,2033.561279 985.663513,2006.820312 958.420898,1979.579468 
z"/>
<path fill="#676767" opacity="1.000000" stroke="none" 
	d="
M1214.577637,2466.558594 
	C1156.380127,2524.760986 1098.678467,2582.457520 1040.520020,2640.610840 
	C1038.179199,2638.666016 1036.072632,2637.178223 1034.273682,2635.382324 
	C1001.260132,2602.427734 968.323608,2569.395996 935.262329,2536.489502 
	C929.338013,2530.592773 925.046936,2524.200928 925.699524,2515.453125 
	C926.416931,2505.837646 930.220581,2498.081787 939.408386,2493.935303 
	C948.637085,2489.770752 957.582825,2490.515625 965.842407,2496.472656 
	C968.249939,2498.209229 970.268433,2500.502686 972.387207,2502.618896 
	C992.425476,2522.632812 1012.440125,2542.670166 1032.482178,2562.680176 
	C1034.796509,2564.990967 1037.236694,2567.175537 1040.017334,2569.793945 
	C1042.967407,2566.989746 1045.626953,2564.571045 1048.166260,2562.032715 
	C1110.846436,2499.373535 1173.557983,2436.745117 1236.126343,2373.974365 
	C1243.782837,2366.292969 1252.087402,2362.260010 1262.946289,2365.411865 
	C1280.895752,2370.621338 1287.020508,2392.825684 1273.921021,2406.223633 
	C1257.151123,2423.375732 1240.024292,2440.178955 1223.102295,2457.183105 
	C1220.292480,2460.006836 1217.743286,2463.089600 1214.577637,2466.558594 
z"/>
</svg>