<?xml version="1.0" encoding="utf-8"?>
<!-- Svg Vector Icons : http://www.onlinewebfonts.com/icon -->
<!DOCTYPE svg PUBLIC "-//W3C//DTD SVG 1.1//EN" "http://www.w3.org/Graphics/SVG/1.1/DTD/svg11.dtd">
<svg version="1.1" xmlns="http://www.w3.org/2000/svg" xmlns:xlink="http://www.w3.org/1999/xlink" x="0px" y="0px" viewBox="0 0 256 256" enable-background="new 0 0 256 256" xml:space="preserve">
<metadata> Svg Vector Icons : http://www.onlinewebfonts.com/icon </metadata>
<g><g><g><path fill="#000000" d="M106.7,10.7c-7.5,2-14,9.4-14.7,16.8l-0.3,2.8h-7.4c-8.3,0-10,0.4-11.5,2.9c-0.6,1.1-0.9,2.3-0.9,4.2V40l-10.3,0.1l-10.3,0.1l-3.1,1.5c-4.1,1.9-7.4,5.2-9.3,9.3l-1.5,3.1v79.2v79.2l1.3,2.6c1.7,3.4,4.7,6.7,7.8,8.6c4.8,2.8,4.9,2.9,47.5,2.9c21.2,0,38.5-0.1,38.5-0.2c0-0.1-0.8-1.9-1.9-4.1c-1.1-2.1-2.2-5-2.6-6.2l-0.7-2.5h-36c-34.3,0-36.1,0-37.9-0.9c-1.2-0.6-2.3-1.5-2.8-2.5c-0.8-1.4-0.8-5-1-76.2c0-50,0-75.3,0.4-76.5c0.3-1,1.2-2.4,2.1-3.2L54,53h9h9v3.3c0,3.7,0.7,5.4,2.8,6.6c1.2,0.6,4.8,0.7,37.4,0.7c34.9,0,36.1,0,37.5-0.9c2-1.2,2.5-2.3,2.8-6.3l0.3-3.4h8.6c7.6,0,8.8,0.1,10,0.9c3.1,1.9,3-1,3,51.6v47.4l3.8,0.3c2.1,0.2,5,0.6,6.5,0.9l2.6,0.6v-48.6c0-52.3,0-51.2-2.3-55.9c-2.1-4-6.4-7.7-11-9.3c-2.2-0.7-3.9-0.9-12-0.9h-9.4v-1.8c0-2.7-0.8-4.9-2.4-6.4l-1.4-1.3l-8-0.1l-8-0.1l-0.5-3c-0.7-4.2-2.4-7.6-5.4-10.8C121.5,10.9,114,8.8,106.7,10.7z M117.2,22.2c7.5,4.4,5,16.3-3.8,17.6c-7.3,1.1-13.1-6.7-10-13.4C105.9,21.1,112,19.2,117.2,22.2z"/><path fill="#000000" d="M90.6,72.9c-0.6,0.2-3.8,4.1-7.2,8.6l-6.2,8.2l-1.2-1.5c-4.7-6.2-5.6-6.9-8.1-6.2c-1.3,0.4-2.6,2.7-2.2,4.1c0.4,1.4,8.8,12.7,9.7,13c1.4,0.6,3.4,0.3,4.3-0.6c0.5-0.5,4.2-5.3,8.3-10.8c8-10.6,8.5-11.7,6.6-13.7c-0.6-0.6-1.2-1-1.4-1c-0.2,0-0.6-0.1-1-0.2C91.9,72.6,91.2,72.7,90.6,72.9z"/><path fill="#000000" d="M104.2,83.8c-2.3,1-3.2,2.4-3.2,4.9c0,2.5,0.9,3.9,3.3,4.9c2.2,1,48.1,0.9,50.4,0c4.4-1.9,4-8.7-0.6-10C151.3,82.8,105.9,83,104.2,83.8z"/><path fill="#000000" d="M90.6,103c-0.6,0.2-3.8,4.1-7.2,8.6l-6.1,8.2l-1.2-1.6c-4.7-6.2-5.6-6.9-8.1-6.2c-1.3,0.4-2.6,2.7-2.2,4.1c0.6,2,9,12.7,10.3,13.2c2.5,0.8,3.4,0,11.6-11c8.5-11.2,8.9-12.2,7-14.3c-0.6-0.6-1.2-1-1.4-1c-0.2,0-0.6-0.1-1-0.2C91.9,102.7,91.2,102.8,90.6,103z"/><path fill="#000000" d="M104.6,113.7c-2.4,0.7-3.7,2.5-3.7,5c0,1.6,0.3,2.5,0.9,3.2c2,2.3,2.3,2.3,27.5,2.3c25.6,0,25.9,0,27.5-2.5c1-1.5,1-4.5,0.1-5.9c-1.9-2.6-0.9-2.5-26.9-2.6C116.8,113.3,105.4,113.5,104.6,113.7z"/><path fill="#000000" d="M91,133c-0.8,0.2-3,2.7-7.4,8.6l-6.2,8.2l-1.2-1.5c-3.8-5-5-6.2-6.2-6.3c-2.5-0.3-4.8,2-4.1,4.3c0.6,1.9,9,12.7,10.3,13.1c2.5,0.8,3.4,0,11.6-11c8.5-11.3,9-12.4,6.9-14.3C93.2,133,92.4,132.7,91,133z"/><path fill="#000000" d="M104.8,143.8c-0.8,0.2-2,0.9-2.7,1.5c-1,1-1.2,1.7-1.2,3.5c0,2,0.2,2.5,1.5,3.8l1.5,1.5l24.5,0.1c26.7,0.1,26.8,0.1,28.5-2.4c1.6-2.5,0.7-6.3-1.8-7.6c-0.7-0.4-7.4-0.6-25-0.6C117.1,143.6,105.6,143.7,104.8,143.8z"/><path fill="#000000" d="M167.1,157.4c-10.4,2-18.1,6.2-25,13.3c-5.3,5.6-8.7,11.6-10.9,19c-1.4,4.9-1.8,15-0.6,20.4c1.8,8.9,5.6,16.1,12.2,22.7c7,7,14.6,11.1,24,12.7c19.4,3.4,38.9-6.7,47.6-24.5c3.5-7.2,4.2-10.3,4.2-19.4c0-8.8-0.6-11.9-3.7-18.6c-3.1-6.8-9.2-14.1-15.2-18.2c-3.5-2.4-10.4-5.5-14.6-6.5C179.9,156.8,171.5,156.5,167.1,157.4z M178.7,167.9c7.8,1.1,14.6,4.6,20.2,10.6c3.8,4,6.2,8.1,7.9,13.5c1.5,5,1.5,14,0,19c-1.9,6.1-4.1,9.7-8.6,14.3c-16.2,16.6-44.1,12-54.3-9c-2.5-5.1-3.5-9.5-3.5-14.9c0-14.1,9.3-27.1,22.7-31.8C168.8,167.5,173.1,167.1,178.7,167.9z"/><path fill="#000000" d="M189.2,182.1c-1.8,0.5-2.5,1.5-11.2,13c-4.6,6.2-8.5,11.2-8.7,11.2s-1.8-2-3.6-4.4c-4.2-5.7-5.3-6.7-7.9-6.7c-2.9,0-4.8,1.8-5.1,4.7c-0.2,2.1-0.2,2.1,6.4,11c7.4,9.9,8.5,10.8,11.5,9.9c0.9-0.3,2.2-1.1,2.9-1.8c0.6-0.7,5.9-7.6,11.7-15.3c11.1-14.8,11.8-15.9,10.4-18.6C194.3,182.8,191.4,181.4,189.2,182.1z"/><path fill="#000000" d="M88.5,165.1c-0.9,1.1-3.7,4.9-6.3,8.3c-2.6,3.5-4.8,6.4-4.9,6.4c-0.1,0-1.3-1.5-2.5-3.2c-2.7-3.7-3.9-4.6-5.6-4.6c-2.1,0-4,2.4-3.4,4.3c0.6,1.9,9.1,12.9,10.3,13.3c2.3,0.9,3.4-0.2,11.6-11.2c8.5-11.3,8.9-12.3,6.8-14.3c-0.7-0.6-1.7-1-2.7-1C90.4,163.2,89.9,163.5,88.5,165.1z"/><path fill="#000000" d="M102.4,175.2c-1.3,1.2-1.5,1.6-1.5,3.7c0,2,0.2,2.5,1.5,3.8l1.5,1.5l12.5,0.1l12.5,0.1l1.4-3.1c0.8-1.7,2.1-4.1,2.8-5.3l1.4-2.2h-15.3h-15.3L102.4,175.2z"/></g></g></g>
</svg>